<svg width="270" height="270" viewBox="0 0 270 270" fill="none" xmlns="http://www.w3.org/2000/svg">
<path d="M270 0H0V270H270V0Z" fill="#0A0A0A"/>
<path d="M186.818 199.737C186.818 195.158 184.997 190.769 181.758 187.531C178.519 184.294 174.126 182.474 169.545 182.474H100.455C95.8735 182.474 91.4815 184.294 88.2422 187.531C85.0029 190.769 83.1818 195.158 83.1818 199.737H186.818ZM117.727 165.211H152.273V139.316H117.727V165.211ZM100.455 70.2632V122.053H160.909C174.652 122.053 187.828 116.592 197.546 106.88C207.264 97.1675 212.727 83.9986 212.727 70.2632H100.455ZM57.2727 78.8947C57.2727 85.7624 60.0044 92.3469 64.8633 97.2031C69.7222 102.059 76.3103 104.789 83.1818 104.789V78.8947H57.2727ZM230 70.2632C230 88.5771 222.724 106.144 209.767 119.094C198.863 129.992 184.684 136.845 169.545 138.751V165.211C178.707 165.211 187.492 168.851 193.97 175.326C200.449 181.801 204.091 190.58 204.091 199.737C204.091 204.315 202.27 208.705 199.031 211.942C195.791 215.18 191.399 217 186.818 217H83.1818C78.6008 217 74.2087 215.18 70.9695 211.942C67.7302 208.705 65.9091 204.315 65.9091 199.737C65.9091 190.58 69.5513 181.801 76.0298 175.326C82.5084 168.851 91.2925 165.211 100.455 165.211V139.316C95.8735 139.316 91.4814 137.496 88.2422 134.258C85.0029 131.021 83.1818 126.631 83.1818 122.053C71.7293 122.053 60.7491 117.502 52.6509 109.409C44.5528 101.315 40 90.3409 40 78.8947C40 74.3163 41.8211 69.9266 45.0604 66.6891C48.2996 63.4517 52.6917 61.6316 57.2727 61.6316H85.518C86.2654 60.3397 87.1681 59.1311 88.2422 58.0576C91.4814 54.8201 95.8735 53 100.455 53H212.727C217.308 53 221.7 54.8201 224.94 58.0576C228.179 61.295 230 65.6847 230 70.2632Z" fill="#00B4FF"/>
</svg>
